Music_Intermission:
	musicheader 4, 1, Music_Intermission_Ch1
	musicheader 1, 2, Music_Intermission_Ch2
	musicheader 1, 3, Music_Intermission_Ch3
	musicheader 1, 4, Music_Intermission_Ch4

Music_Intermission_Ch1:
	tempo $112
	volume $77
	stereopanning $77
	octave 4
	notetype $C, $82
	note C_, 1
	octave 3
	note G_, 1
	note __, 1
	note G#, 1
	note __, 1
	note F_, 1
	note __, 1
	note G_, 1
	note __, 1
	note D#, 1
	note F_, 1
	note __, 1
	note D_, 1
	note D#, 1
	note __, 1
	octave 2
	note A#, 1
	octave 3
	note G_, 1
	note D#, 1
	note __, 1
	note F_, 1
	note __, 1
	note D_, 1
	note __, 1
	note D#, 1
	note __, 1
	octave 2
	note A#, 1
	octave 3
	note C_, 1
	note __, 1
	note F_, 1
	note __, 1
	note G_, 1
	note __, 1
	octave 4
	note C_, 1
	octave 3
	note G_, 1
	note __, 1
	note G#, 1
	note __, 1
	note F_, 1
	note __, 1
	note G_, 1
	note __, 1
	note D#, 1
	note F_, 1
	note __, 1
	note D_, 1
	note D#, 1
	note __, 1
	octave 2
	note A#, 1
	octave 3
	note G_, 1
	note D#, 1
	note __, 1
	note F_, 1
	note __, 1
	note D_, 1
	note __, 1
	note D#, 1
	note __, 1
	octave 2
	note A#, 1
	octave 3
	note C_, 1
	note __, 1
	note F_, 1
	note __, 1
	note G_, 1
	note __, 1
	octave 4
	note C_, 1
	octave 3
	note G_, 1
	note __, 1
	note G#, 1
	note __, 1
	note F_, 1
	note __, 1
	note G_, 1
	note __, 1
	note D#, 1
	note F_, 1
	note __, 1
	note D_, 1
	note D#, 1
	note __, 1
	octave 2
	note A#, 1
	octave 3
	note G_, 1
	note D#, 1
	note __, 1
	note F_, 1
	note __, 1
	note D_, 1
	note __, 1
	note D#, 1
	note __, 1
	octave 2
	note A#, 1
	octave 3
	note C_, 1
	note __, 1
	note F_, 1
	note __, 1
	note G_, 1
	note __, 1
	octave 4
	note C_, 1
	octave 3
	note G_, 1
	note __, 1
	note G#, 1
	note __, 1
	note F_, 1
	note __, 1
	note G_, 1
	note __, 1
	note D#, 1
	note F_, 1
	note __, 1
	note D_, 1
	note D#, 1
	note __, 1
	octave 2
	note A#, 1
	octave 3
	note G_, 1
	note D#, 1
	note __, 1
	note F_, 1
	note __, 1
	note D_, 1
	note __, 1
	note D#, 1
	note __, 1
	octave 2
	note A#, 1
	octave 3
	note C_, 1
	note __, 1
	note F_, 1
	note __, 1
	note G_, 1
	note __, 1
	octave 4
	note C_, 1
	octave 3
	note G_, 1
	note __, 1
	note G#, 1
	note __, 1
	note F_, 1
	note __, 1
	note G_, 1
	note __, 1
	note D#, 1
	note F_, 1
	note __, 1
	note D_, 1
	note D#, 1
	note __, 1
	octave 2
	note A#, 1
	octave 3
	note G_, 1
	note D#, 1
	note __, 1
	note F_, 1
	note __, 1
	note D_, 1
	note __, 1
	note D#, 1
	note __, 1
	octave 2
	note A#, 1
	octave 3
	note C_, 1
	note __, 1
	note F_, 1
	note __, 1
	note G_, 1
	note __, 1
	octave 4
	note C_, 1
	octave 3
	note G_, 1
	note __, 1
	note G#, 1
	note __, 1
	note F_, 1
	note __, 1
	note G_, 1
	note __, 1
	note D#, 1
	note F_, 1
	note __, 1
	note D_, 1
	note D#, 1
	note __, 1
	octave 2
	note A#, 1
	octave 3
	note G_, 1
	note D#, 1
	note __, 1
	note F_, 1
	note __, 1
	note D_, 1
	note __, 1
	note D#, 1
	note __, 1
	octave 2
	note A#, 1
	octave 3
	note C_, 1
	note __, 1
	note F_, 1
	note __, 1
	note G_, 1
	note __, 1
	octave 4
	note C_, 1
	octave 3
	note G_, 1
	note __, 1
	note G#, 1
	note __, 1
	note F_, 1
	note __, 1
	note G_, 1
	note __, 1
	note D#, 1
	note F_, 1
	note __, 1
	note D_, 1
	note D#, 1
	note __, 1
	octave 2
	note A#, 1
	octave 3
	note G_, 1
	note D#, 1
	note __, 1
	note F_, 1
	note __, 1
	note D_, 1
	note __, 1
	note D#, 1
	note __, 1
	octave 2
	note A#, 1
	octave 3
	note C_, 1
	note __, 1
	note F_, 1
	note __, 1
	note G_, 1
	note __, 1
	octave 4
	note C_, 1
	octave 3
	note G_, 1
	note __, 1
	note G#, 1
	note __, 1
	note F_, 1
	note __, 1
	note G_, 1
	note __, 1
	note D#, 1
	note F_, 1
	note __, 1
	note D_, 1
	note D#, 1
	note __, 1
	octave 2
	note A#, 1
	octave 3
	note G_, 1
	note D#, 1
	note __, 1
	note F_, 1
	note __, 1
	note D_, 1
	note __, 1
	note D#, 1
	note __, 1
	octave 2
	note A#, 1
	octave 3
	note C_, 1
	note __, 1
	note F_, 1
	note __, 1
	note G_, 1
	note __, 1
	octave 4
	note C_, 1
	octave 3
	note G_, 1
	note __, 1
	note G#, 1
	note __, 1
	note F_, 1
	note __, 1
	note G_, 1
	note __, 1
	note D#, 1
	note F_, 1
	note __, 1
	note D_, 1
	note D#, 1
	note __, 1
	octave 2
	note A#, 1
	octave 3
	note G_, 1
	note D#, 1
	note __, 1
	note F_, 1
	note __, 1
	note D_, 1
	note __, 1
	note D#, 1
	note __, 1
	octave 2
	note A#, 1
	octave 3
	note C_, 1
	note __, 1
	note F_, 1
	note __, 1
	note G_, 1
	note __, 1
	octave 4
	note C_, 1
	octave 3
	note G_, 1
	note __, 1
	note G#, 1
	note __, 1
	note F_, 1
	note __, 1
	note G_, 1
	note __, 1
	note D#, 1
	note F_, 1
	note __, 1
	note D_, 1
	note D#, 1
	note __, 1
	octave 2
	note A#, 1
	octave 3
	note G_, 1
	note D#, 1
	note __, 1
	note F_, 1
	note __, 1
	note D_, 1
	note __, 1
	note D#, 1
	note __, 1
	octave 2
	note A#, 1
	octave 3
	note C_, 1
	note __, 1
	note F_, 1
	note __, 1
	note G_, 1
	note __, 1
	octave 4
	note C_, 1
	octave 3
	note G_, 1
	note __, 1
	note G#, 1
	note __, 1
	note F_, 1
	note __, 1
	note G_, 1
	note __, 1
	note D#, 1
	note F_, 1
	note __, 1
	note D_, 1
	note D#, 1
	note __, 1
	octave 2
	note A#, 1
	octave 3
	note G_, 1
	note D#, 1
	note __, 1
	note F_, 1
	note __, 1
	note D_, 1
	note __, 1
	note D#, 1
	note __, 1
	octave 2
	note A#, 1
	octave 3
	note C_, 1
	note __, 1
	note F_, 1
	note __, 1
	note G_, 1
	note __, 1
	octave 4
	note C_, 1
	octave 3
	note G_, 1
	note __, 1
	note G#, 1
	note __, 1
	note F_, 1
	note __, 1
	note G_, 1
	note __, 1
	note D#, 1
	note F_, 1
	note __, 1
	note D_, 1
	note D#, 1
	note __, 1
	octave 2
	note A#, 1
	octave 3
	note G_, 1
	note D#, 1
	note __, 1
	note F_, 1
	note __, 1
	note D_, 1
	note __, 1
	note D#, 1
	note __, 1
	octave 2
	note A#, 1
	octave 3
	note C_, 1
	note __, 1
	note F_, 1
	note __, 1
	note G_, 1
	note __, 1
	octave 4
	note C_, 1
	octave 3
	note G_, 1
	note __, 1
	note G#, 1
	note __, 1
	note F_, 1
	note __, 1
	note G_, 1
	note __, 1
	note D#, 1
	note F_, 1
	note __, 1
	note D_, 1
	note D#, 1
	note __, 1
	octave 2
	note A#, 1
	octave 3
	note G_, 1
	note D#, 1
	note __, 1
	note F_, 1
	note __, 1
	note D_, 1
	note __, 1
	note D#, 1
	note __, 1
	octave 2
	note A#, 1
	octave 3
	note C_, 1
	note __, 1
	note F_, 1
	note __, 1
	note G_, 1
	note __, 1
	octave 4
	note C_, 1
	octave 3
	note G_, 1
	note __, 1
	note G#, 1
	note __, 1
	note F_, 1
	note __, 1
	note G_, 1
	note __, 1
	note D#, 1
	note F_, 1
	note __, 1
	note D_, 1
	note D#, 1
	note __, 1
	octave 2
	note A#, 1
	octave 3
	note G_, 1
	note D#, 1
	note __, 1
	note F_, 1
	note __, 1
	note D_, 1
	note __, 1
	note D#, 1
	note __, 1
	octave 2
	note A#, 1
	octave 3
	note C_, 1
	note __, 1
	note F_, 1
	note __, 1
	note G_, 1
	note __, 1
	octave 4
	note C_, 1
	octave 3
	note G_, 1
	note __, 1
	note G#, 1
	note __, 1
	note F_, 1
	note __, 1
	note G_, 1
	note __, 1
	note D#, 1
	note F_, 1
	note __, 1
	note D_, 1
	note D#, 1
	note __, 1
	octave 2
	note A#, 1
	octave 3
	note G_, 1
	note D#, 1
	note __, 1
	note F_, 1
	note __, 1
	note D_, 1
	note __, 1
	note D#, 1
	note __, 1
	octave 2
	note A#, 1
	octave 3
	note C_, 1
	note __, 1
	note F_, 1
	note __, 1
	note G_, 1
	note __, 1
	octave 4
	note C_, 1
	octave 3
	note G_, 1
	note __, 1
	note G#, 1
	note __, 1
	note F_, 1
	note __, 1
	note G_, 1
	note __, 1
	note D#, 1
	note F_, 1
	note __, 1
	note D_, 1
	note D#, 1
	note __, 1
	octave 2
	note A#, 1
	octave 3
	note G_, 1
	note D#, 1
	note __, 1
	note F_, 1
	note __, 1
	note D_, 1
	note __, 1
	note D#, 1
	note __, 1
	octave 2
	note A#, 1
	octave 3
	note C_, 1
	note __, 1
	note F_, 1
	note __, 1
	note G_, 1
	endchannel

Music_Intermission_Ch2:
	octave 2
	notetype $1, $87
	note C_, 1
	notetype $1, $87
	note C_, 11
	notetype $C, $87
	notetype $D, $87
	note __, 1
	note C_, 1
	notetype $1, $87
	note C_, 10
	notetype $D, $87
	notetype $7, $87
	note __, 7
	note C_, 3
	notetype $1, $87
	note C_, 2
	notetype $7, $87
	notetype $D, $87
	note __, 1
	note C_, 1
	notetype $1, $87
	note C_, 10
	notetype $D, $87
	notetype $5, $87
	note __, 5
	note C_, 4
	notetype $1, $87
	note C_, 3
	notetype $5, $87
	notetype $D, $87
	note __, 1
	note C_, 1
	notetype $1, $87
	note C_, 10
	notetype $D, $87
	notetype $7, $87
	note __, 7
	note C_, 3
	notetype $1, $87
	note C_, 2
	notetype $7, $87
	notetype $D, $87
	note __, 1
	note C_, 1
	notetype $1, $87
	note C_, 10
	notetype $D, $87
	notetype $5, $87
	note __, 5
	note C_, 4
	notetype $1, $87
	note C_, 3
	notetype $5, $87
	notetype $D, $87
	note __, 1
	note C_, 1
	notetype $1, $87
	note C_, 10
	notetype $D, $87
	notetype $7, $87
	note __, 7
	note C_, 3
	notetype $1, $87
	note C_, 2
	notetype $7, $87
	notetype $D, $87
	note __, 1
	note C_, 1
	notetype $1, $87
	note C_, 10
	notetype $D, $87
	notetype $5, $87
	note __, 5
	note C_, 4
	notetype $1, $87
	note C_, 3
	notetype $5, $87
	notetype $D, $87
	note __, 1
	note C_, 1
	notetype $1, $87
	note C_, 10
	notetype $D, $87
	notetype $7, $87
	note __, 7
	note C_, 3
	notetype $1, $87
	note C_, 2
	notetype $7, $87
	notetype $D, $87
	note __, 1
	note C_, 1
	notetype $1, $87
	note C_, 10
	notetype $D, $87
	notetype $5, $87
	note __, 5
	note C_, 4
	notetype $1, $87
	note C_, 3
	notetype $5, $87
	notetype $D, $87
	note __, 1
	note C_, 1
	notetype $1, $87
	note C_, 10
	notetype $D, $87
	notetype $7, $87
	note __, 7
	note C_, 3
	notetype $1, $87
	note C_, 2
	notetype $7, $87
	notetype $D, $87
	note __, 1
	note C_, 1
	notetype $1, $87
	note C_, 10
	notetype $D, $87
	notetype $5, $87
	note __, 5
	note C_, 4
	notetype $1, $87
	note C_, 3
	notetype $5, $87
	notetype $D, $87
	note __, 1
	note C_, 1
	notetype $1, $87
	note C_, 10
	notetype $D, $87
	notetype $7, $87
	note __, 7
	note C_, 3
	notetype $1, $87
	note C_, 2
	notetype $7, $87
	notetype $D, $87
	note __, 1
	note C_, 1
	notetype $1, $87
	note C_, 10
	notetype $D, $87
	notetype $5, $87
	note __, 5
	note C_, 4
	notetype $1, $87
	note C_, 3
	notetype $5, $87
	notetype $D, $87
	note __, 1
	note C_, 1
	notetype $1, $87
	note C_, 10
	notetype $D, $87
	notetype $7, $87
	note __, 7
	note C_, 3
	notetype $1, $87
	note C_, 2
	notetype $7, $87
	notetype $D, $87
	note __, 1
	note C_, 1
	notetype $1, $87
	note C_, 10
	notetype $D, $87
	notetype $5, $87
	note __, 5
	note C_, 4
	notetype $1, $87
	note C_, 3
	notetype $5, $87
	notetype $D, $87
	note __, 1
	note C_, 1
	notetype $1, $87
	note C_, 10
	notetype $D, $87
	notetype $7, $87
	note __, 7
	note C_, 3
	notetype $1, $87
	note C_, 2
	notetype $7, $87
	notetype $D, $87
	note __, 1
	note C_, 1
	notetype $1, $87
	note C_, 10
	notetype $D, $87
	notetype $5, $87
	note __, 5
	note C_, 4
	notetype $1, $87
	note C_, 3
	notetype $5, $87
	notetype $D, $87
	note __, 1
	note C_, 1
	notetype $1, $87
	note C_, 10
	notetype $D, $87
	notetype $7, $87
	note __, 7
	note C_, 3
	notetype $1, $87
	note C_, 2
	notetype $7, $87
	notetype $D, $87
	note __, 1
	note C_, 1
	notetype $1, $87
	note C_, 10
	notetype $D, $87
	notetype $5, $87
	note __, 5
	note D_, 4
	notetype $1, $87
	note D_, 3
	notetype $5, $87
	notetype $D, $87
	note __, 1
	note D_, 1
	notetype $1, $87
	note D_, 10
	notetype $D, $87
	notetype $7, $87
	note __, 7
	note D_, 3
	notetype $1, $87
	note D_, 2
	notetype $7, $87
	notetype $D, $87
	note __, 1
	note D_, 1
	notetype $1, $87
	note D_, 10
	notetype $D, $87
	notetype $5, $87
	note __, 5
	note D#, 4
	notetype $1, $87
	note D#, 3
	notetype $5, $87
	notetype $D, $87
	note __, 1
	note D#, 1
	notetype $1, $87
	note D#, 10
	notetype $D, $87
	notetype $7, $87
	note __, 7
	note D#, 3
	notetype $1, $87
	note D#, 2
	notetype $7, $87
	notetype $D, $87
	note __, 1
	note D#, 1
	notetype $1, $87
	note D#, 10
	notetype $D, $87
	notetype $5, $87
	note __, 5
	note F_, 4
	notetype $1, $87
	note F_, 3
	notetype $5, $87
	notetype $D, $87
	note __, 1
	note F_, 1
	notetype $1, $87
	note F_, 10
	notetype $D, $87
	notetype $7, $87
	note __, 7
	note F_, 3
	notetype $1, $87
	note F_, 2
	notetype $7, $87
	notetype $D, $87
	note __, 1
	note F_, 1
	notetype $1, $87
	note F_, 10
	notetype $D, $87
	notetype $5, $87
	note __, 5
	note C_, 4
	notetype $1, $87
	note C_, 3
	notetype $5, $87
	notetype $D, $87
	note __, 1
	note C_, 1
	notetype $1, $87
	note C_, 10
	notetype $D, $87
	notetype $7, $87
	note __, 7
	note C_, 3
	notetype $1, $87
	note C_, 2
	notetype $7, $87
	notetype $D, $87
	note __, 1
	note C_, 1
	notetype $1, $87
	note C_, 10
	notetype $D, $87
	notetype $5, $87
	note __, 5
	octave 1
	note A#, 4
	notetype $1, $87
	note A#, 3
	notetype $5, $87
	notetype $D, $87
	note __, 1
	note A#, 1
	notetype $1, $87
	note A#, 10
	notetype $D, $87
	notetype $7, $87
	note __, 7
	note A#, 3
	notetype $1, $87
	note A#, 2
	notetype $7, $87
	notetype $D, $87
	note __, 1
	note A#, 1
	notetype $1, $87
	note A#, 10
	notetype $D, $87
	notetype $5, $87
	note __, 5
	note G#, 4
	notetype $1, $87
	note G#, 3
	notetype $5, $87
	notetype $D, $87
	note __, 1
	note G#, 1
	notetype $1, $87
	note G#, 10
	notetype $D, $87
	notetype $7, $87
	note __, 7
	note G#, 3
	notetype $1, $87
	note G#, 2
	notetype $7, $87
	notetype $D, $87
	note __, 1
	note G#, 1
	notetype $1, $87
	note G#, 10
	notetype $D, $87
	notetype $5, $87
	note __, 5
	note A#, 4
	notetype $1, $87
	note A#, 3
	notetype $5, $87
	notetype $D, $87
	note __, 1
	note A#, 1
	notetype $1, $87
	note A#, 10
	notetype $D, $87
	notetype $7, $87
	note __, 7
	note A#, 3
	notetype $1, $87
	note A#, 2
	notetype $7, $87
	notetype $D, $87
	note __, 1
	note A#, 1
	notetype $1, $87
	note A#, 10
	notetype $D, $87
	notetype $5, $87
	note __, 5
	octave 2
	note C_, 4
	notetype $1, $87
	note C_, 3
	notetype $5, $87
	notetype $D, $87
	note __, 1
	note C_, 1
	notetype $1, $87
	note C_, 10
	notetype $D, $87
	notetype $7, $87
	note __, 7
	note C_, 3
	notetype $1, $87
	note C_, 2
	notetype $7, $87
	notetype $D, $87
	note __, 1
	note C_, 1
	notetype $1, $87
	note C_, 10
	notetype $D, $87
	notetype $5, $87
	note __, 5
	note C_, 4
	notetype $1, $87
	note C_, 3
	notetype $5, $87
	notetype $D, $87
	note __, 1
	note C_, 1
	notetype $1, $87
	note C_, 10
	notetype $D, $87
	notetype $7, $87
	note __, 7
	note C_, 3
	notetype $1, $87
	note C_, 2
	notetype $7, $87
	notetype $D, $87
	note __, 1
	note C_, 1
	notetype $1, $87
	note C_, 10
	notetype $D, $87
	notetype $5, $87
	note __, 5
	note C_, 4
	notetype $1, $87
	note C_, 3
	notetype $5, $87
	notetype $D, $87
	note __, 1
	note C_, 1
	notetype $1, $87
	note C_, 10
	notetype $D, $87
	notetype $7, $87
	note __, 7
	note C_, 3
	notetype $1, $87
	note C_, 2
	notetype $7, $87
	notetype $D, $87
	note __, 1
	note C_, 1
	notetype $1, $87
	note C_, 10
	notetype $D, $87
	notetype $5, $87
	note __, 5
	note C_, 4
	notetype $1, $87
	note C_, 3
	notetype $5, $87
	notetype $D, $87
	note __, 1
	note C_, 1
	notetype $1, $87
	note C_, 10
	notetype $D, $87
	notetype $7, $87
	note __, 7
	note C_, 3
	notetype $1, $87
	note C_, 2
	notetype $7, $87
	notetype $D, $87
	note __, 1
	note C_, 1
	notetype $1, $87
	note C_, 10
	notetype $D, $87
	notetype $5, $87
	note __, 5
	note C_, 4
	notetype $1, $87
	note C_, 3
	notetype $5, $87
	notetype $D, $87
	note __, 1
	note C_, 1
	notetype $1, $87
	note C_, 10
	notetype $D, $87
	notetype $7, $87
	note __, 7
	note C_, 3
	notetype $1, $87
	note C_, 2
	notetype $7, $87
	notetype $D, $87
	note __, 1
	note C_, 1
	notetype $1, $87
	note C_, 10
	notetype $D, $87
	notetype $5, $87
	note __, 5
	note C_, 4
	notetype $1, $87
	note C_, 3
	notetype $5, $87
	notetype $D, $87
	note __, 1
	note C_, 1
	notetype $1, $87
	note C_, 10
	notetype $D, $87
	notetype $7, $87
	note __, 7
	note C_, 3
	notetype $1, $87
	note C_, 2
	notetype $7, $87
	notetype $D, $87
	note __, 1
	note C_, 1
	notetype $1, $87
	note C_, 10
	notetype $D, $87
	notetype $5, $87
	note __, 5
	note C_, 4
	notetype $1, $87
	note C_, 3
	notetype $5, $87
	notetype $D, $87
	note __, 1
	note C_, 1
	notetype $1, $87
	note C_, 10
	notetype $D, $87
	notetype $7, $87
	note __, 7
	note C_, 3
	notetype $1, $87
	note C_, 2
	notetype $7, $87
	notetype $D, $87
	note __, 1
	note C_, 1
	notetype $1, $87
	note C_, 10
	notetype $D, $87
	notetype $5, $87
	note __, 5
	note C_, 4
	notetype $1, $87
	note C_, 3
	notetype $5, $87
	notetype $D, $87
	note __, 1
	note C_, 1
	notetype $1, $87
	note C_, 10
	notetype $D, $87
	notetype $7, $87
	note __, 7
	note C_, 3
	notetype $1, $87
	note C_, 2
	notetype $7, $87
	notetype $D, $87
	note __, 1
	note C_, 1
	notetype $1, $87
	note C_, 10
	notetype $D, $87
	notetype $5, $87
	note __, 5
	note C_, 4
	notetype $1, $87
	note C_, 3
	notetype $5, $87
	notetype $D, $87
	note __, 1
	note C_, 1
	notetype $1, $87
	note C_, 10
	notetype $D, $87
	notetype $7, $87
	note __, 7
	note C_, 3
	notetype $1, $87
	note C_, 2
	notetype $7, $87
	notetype $D, $87
	note __, 1
	note C_, 1
	notetype $1, $87
	note C_, 10
	notetype $D, $87
	notetype $5, $87
	note __, 5
	note D_, 4
	notetype $1, $87
	note D_, 3
	notetype $5, $87
	notetype $D, $87
	note __, 1
	note D_, 1
	notetype $1, $87
	note D_, 10
	notetype $D, $87
	notetype $7, $87
	note __, 7
	note D_, 3
	notetype $1, $87
	note D_, 2
	notetype $7, $87
	notetype $D, $87
	note __, 1
	note D_, 1
	notetype $1, $87
	note D_, 10
	notetype $D, $87
	notetype $5, $87
	note __, 5
	note D#, 4
	notetype $1, $87
	note D#, 3
	notetype $5, $87
	notetype $D, $87
	note __, 1
	note D#, 1
	notetype $1, $87
	note D#, 10
	notetype $D, $87
	notetype $7, $87
	note __, 7
	note D#, 3
	notetype $1, $87
	note D#, 2
	notetype $7, $87
	notetype $D, $87
	note __, 1
	note D#, 1
	notetype $1, $87
	note D#, 10
	notetype $D, $87
	notetype $5, $87
	note __, 5
	note F_, 4
	notetype $1, $87
	note F_, 3
	notetype $5, $87
	notetype $D, $87
	note __, 1
	note F_, 1
	notetype $1, $87
	note F_, 10
	notetype $D, $87
	notetype $7, $87
	note __, 7
	note F_, 3
	notetype $1, $87
	note F_, 2
	notetype $7, $87
	notetype $D, $87
	note __, 1
	note F_, 1
	notetype $1, $87
	note F_, 10
	notetype $D, $87
	notetype $5, $87
	note __, 5
	note C_, 4
	notetype $1, $87
	note C_, 3
	notetype $5, $87
	notetype $D, $87
	note __, 1
	note C_, 1
	notetype $1, $87
	note C_, 10
	notetype $D, $87
	notetype $7, $87
	note __, 7
	note C_, 3
	notetype $1, $87
	note C_, 2
	notetype $7, $87
	notetype $D, $87
	note __, 1
	note C_, 1
	notetype $1, $87
	note C_, 10
	notetype $D, $87
	notetype $5, $87
	note __, 5
	octave 1
	note A#, 4
	notetype $1, $87
	note A#, 3
	notetype $5, $87
	notetype $D, $87
	note __, 1
	note A#, 1
	notetype $1, $87
	note A#, 10
	notetype $D, $87
	notetype $7, $87
	note __, 7
	note A#, 3
	notetype $1, $87
	note A#, 2
	notetype $7, $87
	notetype $D, $87
	note __, 1
	note A#, 1
	notetype $1, $87
	note A#, 10
	notetype $D, $87
	notetype $5, $87
	note __, 5
	note G#, 4
	notetype $1, $87
	note G#, 3
	notetype $5, $87
	notetype $D, $87
	note __, 1
	note G#, 1
	notetype $1, $87
	note G#, 10
	notetype $D, $87
	notetype $7, $87
	note __, 7
	note G#, 3
	notetype $1, $87
	note G#, 2
	notetype $7, $87
	notetype $D, $87
	note __, 1
	note G#, 1
	notetype $1, $87
	note G#, 10
	notetype $D, $87
	notetype $5, $87
	note __, 5
	note A#, 4
	notetype $1, $87
	note A#, 3
	notetype $5, $87
	notetype $D, $87
	note __, 1
	note A#, 1
	notetype $1, $87
	note A#, 10
	notetype $D, $87
	notetype $7, $87
	note __, 7
	note A#, 3
	notetype $1, $87
	note A#, 2
	notetype $7, $87
	notetype $D, $87
	note __, 1
	note A#, 1
	notetype $1, $87
	note A#, 10
	notetype $D, $87
	endchannel

Music_Intermission_Ch3:
	octave 5
	notetype $C, $70
	note G_, 16
	note C_, 16
	note F_, 16
	octave 4
	note A#, 16
	octave 5
	note D#, 16
	notetype $4, $70
	note __, 1
	octave 4
	note G#, 16
	note __, 16
	note __, 14
	notetype $1, $70
	note __, 1
	notetype $4, $70
	notetype $3, $70
	note __, 1
	octave 5
	notetype $C, $70
	note D_, 16
	notetype $4, $70
	note __, 1
	octave 4
	note G_, 16
	note __, 16
	note __, 14
	notetype $1, $70
	note __, 1
	notetype $4, $70
	notetype $3, $70
	note __, 1
	octave 5
	notetype $C, $70
	note G_, 16
	note C_, 16
	note F_, 16
	octave 4
	note A#, 16
	notetype $4, $70
	note __, 1
	octave 5
	note D#, 16
	note __, 16
	note __, 14
	notetype $1, $70
	note __, 1
	notetype $4, $70
	notetype $7, $70
	note __, 1
	note F_, 16
	note __, 10
	notetype $1, $70
	note __, 3
	notetype $7, $70
	note __, 1
	note C_, 16
	note __, 10
	notetype $1, $70
	note __, 3
	notetype $7, $70
	note __, 1
	note D#, 12
	notetype $1, $70
	note D#, 5
	notetype $7, $70
	note __, 1
	note D_, 12
	notetype $1, $70
	note D_, 5
	notetype $7, $70
	notetype $3, $70
	note __, 1
	notetype $C, $70
	note G_, 16
	note C_, 16
	note F_, 16
	octave 4
	note A#, 16
	octave 5
	note D#, 16
	notetype $4, $70
	note __, 1
	octave 4
	note G#, 16
	note __, 16
	note __, 14
	notetype $1, $70
	note __, 1
	notetype $4, $70
	notetype $7, $70
	note __, 1
	note F_, 16
	note __, 10
	notetype $1, $70
	note __, 3
	notetype $7, $70
	note __, 1
	note G_, 16
	note __, 10
	notetype $1, $70
	note __, 3
	notetype $7, $70
	notetype $3, $70
	note __, 1
	octave 5
	notetype $C, $70
	note G_, 16
	note C_, 16
	note F_, 16
	octave 4
	note A#, 16
	notetype $4, $70
	note __, 1
	octave 5
	note D#, 16
	note __, 16
	note __, 14
	notetype $1, $70
	note __, 1
	notetype $4, $70
	notetype $7, $70
	note __, 1
	note F_, 16
	note __, 10
	notetype $1, $70
	note __, 3
	notetype $7, $70
	note __, 1
	note C_, 16
	note __, 10
	notetype $1, $70
	note __, 3
	notetype $7, $70
	note __, 1
	note D#, 12
	notetype $1, $70
	note D#, 5
	notetype $7, $70
	note __, 1
	note D_, 12
	notetype $1, $70
	note D_, 5
	notetype $7, $70
	endchannel

Music_Intermission_Ch4:
	endchannel