Music_Kero1:
	musicheader 4, 1, Music_Kero1_Ch1
	musicheader 1, 2, Music_Kero1_Ch2
	musicheader 1, 3, Music_Kero1_Ch3
	musicheader 1, 4, Music_Kero1_Ch4

Music_Kero1_Ch1:
	tempo $7C
	volume $77
	stereopanning $77
	notetype $C, $00
	note __, 4
	octave 3
	note E_, 4
	note G_, 2
	note A_, 2
	note __, 2
	note B_, 2
	note __, 2
	note B_, 2
	note __, 2
	note B_, 2
	note __, 2
	note B_, 2
	note A_, 2
	note G_, 2
	octave 4
	notetype $9, $00
	note C_, 6
	note __, 2
	octave 3
	notetype $C, $00
	note G_, 1
	note __, 1
	notetype $9, $00
	note G_, 6
	note __, 2
	notetype $C, $00
	note G_, 1
	note __, 1
	notetype $9, $00
	note E_, 6
	note __, 2
	notetype $C, $00
	note E_, 1
	note __, 1
	notetype $9, $00
	note C_, 6
	note __, 10
	notetype $C, $00
	note E_, 4
	note G_, 2
	note A_, 2
	note __, 2
	note B_, 2
	note __, 2
	note B_, 2
	note __, 2
	note B_, 2
	note __, 2
	note B_, 2
	octave 4
	note C_, 2
	note D_, 2
	notetype $9, $00
	note C_, 6
	note __, 2
	octave 3
	notetype $C, $00
	note B_, 1
	note __, 1
	notetype $9, $00
	note B_, 6
	note __, 2
	notetype $C, $00
	note B_, 1
	note __, 1
	octave 4
	notetype $9, $00
	note C_, 6
	note __, 2
	notetype $C, $00
	note D_, 1
	note __, 1
	note D_, 5
	note __, 3
	note E_, 4
	note __, 2
	note D_, 8
	note __, 2
	note C_, 4
	note __, 2
	note D_, 8
	note __, 2
	note G_, 5
	note __, 1
	note F_, 6
	note E_, 4
	notetype $F, $00
	note C_, 10
	notetype $E, $00
	note __, 3
	notetype $C, $00
	note E_, 4
	note __, 2
	note D_, 8
	note __, 2
	note C_, 4
	note __, 2
	note D_, 8
	note __, 2
	octave 3
	note A_, 6
	octave 4
	note C_, 6
	octave 3
	note A_, 4
	octave 4
	notetype $F, $00
	note E_, 10
	note __, 6
	octave 3
	notetype $C, $00
	note E_, 4
	note G_, 2
	note A_, 2
	note __, 2
	note B_, 2
	note __, 2
	note B_, 2
	note __, 2
	note B_, 2
	note __, 2
	note B_, 2
	note A_, 2
	note G_, 2
	octave 4
	notetype $9, $00
	note C_, 6
	note __, 2
	octave 3
	notetype $C, $00
	note G_, 1
	note __, 1
	notetype $9, $00
	note G_, 6
	note __, 2
	notetype $C, $00
	note G_, 1
	note __, 1
	notetype $9, $00
	note E_, 6
	note __, 2
	notetype $C, $00
	note E_, 1
	note __, 1
	notetype $9, $00
	note C_, 6
	note __, 10
	notetype $C, $00
	note E_, 4
	note G_, 2
	note A_, 2
	note __, 2
	note B_, 2
	note __, 2
	note B_, 2
	note __, 2
	note B_, 2
	note A_, 2
	note B_, 2
	octave 4
	note C_, 2
	note D_, 2
	notetype $9, $00
	note C_, 6
	note __, 2
	octave 3
	notetype $C, $00
	note B_, 1
	note __, 1
	notetype $9, $00
	note B_, 6
	note __, 2
	notetype $C, $00
	note B_, 1
	note __, 1
	octave 4
	notetype $9, $00
	note C_, 6
	note __, 2
	notetype $C, $00
	note D_, 1
	note __, 1
	note D_, 5
	note __, 3
	note E_, 4
	note __, 2
	note D_, 8
	note __, 2
	note C_, 4
	note __, 2
	note D_, 6
	octave 3
	note D_, 4
	octave 4
	note G_, 6
	note F_, 6
	note E_, 4
	notetype $F, $00
	note C_, 10
	notetype $E, $00
	note __, 3
	notetype $C, $00
	note E_, 4
	note __, 2
	note D_, 8
	note __, 2
	note C_, 4
	note __, 2
	note D_, 8
	note __, 2
	octave 3
	note A_, 6
	octave 4
	note C_, 6
	octave 3
	note A_, 4
	octave 4
	note E_, 10
	octave 3
	notetype $F, $00
	note B_, 2
	notetype $9, $00
	note __, 2
	octave 4
	note C_, 16
	note __, 8
	note __, 16
	note __, 16
	note __, 16
	note __, 16
	note __, 16
	note __, 16
	note __, 10
	notetype $1, $00
	note __, 6
	notetype $9, $00
	notetype $C, $00
	note E_, 1
	note __, 2
	note E_, 1
	note C_, 1
	note __, 1
	note F#, 1
	note C_, 1
	note __, 1
	note F#, 1
	note E_, 1
	note __, 1
	note D_, 1
	note E_, 1
	note E_, 1
	note D_, 1
	note E_, 1
	note E_, 1
	note __, 1
	note E_, 1
	note C_, 1
	note __, 1
	note G_, 1
	note C_, 1
	note __, 1
	note G_, 1
	note E_, 1
	note __, 1
	note D_, 1
	note E_, 1
	note E_, 1
	note D_, 1
	note __, 1
	note E_, 1
	note __, 2
	octave 3
	note C_, 4
	octave 2
	note A#, 2
	note E_, 4
	note A#, 4
	octave 3
	note C_, 4
	note D_, 4
	note C_, 2
	note D_, 2
	note E_, 2
	note F_, 6
	notetype $F, $00
	note E_, 2
	note __, 6
	notetype $C, $00
	note D_, 6
	notetype $F, $00
	note C_, 2
	note __, 6
	notetype $C, $00
	note D_, 4
	note G_, 2
	note __, 2
	note G_, 2
	note __, 6
	note F_, 6
	note E_, 6
	note F_, 4
	note D_, 4
	note G_, 2
	note __, 2
	note G_, 2
	note __, 6
	note F_, 6
	note E_, 6
	note __, 8
	note C_, 4
	octave 2
	note A#, 2
	note E_, 4
	note A#, 4
	octave 3
	note C_, 4
	note D_, 4
	note C_, 2
	note D_, 2
	note E_, 2
	note F_, 6
	notetype $F, $00
	note E_, 2
	note __, 6
	notetype $C, $00
	note D_, 6
	notetype $F, $00
	note C_, 2
	note __, 6
	notetype $C, $00
	note D_, 4
	note G_, 2
	note __, 2
	note G_, 2
	note __, 6
	note F_, 6
	note E_, 6
	note F_, 4
	note D_, 4
	note G_, 2
	note __, 2
	note G_, 2
	note __, 6
	note F_, 6
	note E_, 6
	note __, 4
	octave 4
	note G_, 6
	note D#, 6
	note C_, 4
	octave 3
	note G_, 4
	octave 4
	note C_, 4
	note G_, 4
	note F_, 4
	note D#, 6
	note D_, 6
	note C_, 4
	octave 3
	note A#, 15
	notetype $6, $00
	note __, 1
	notetype $F, $00
	note A#, 10
	octave 4
	notetype $C, $00
	note D#, 4
	note F_, 6
	note D#, 6
	notetype $E, $00
	note F_, 3
	notetype $D, $00
	note F_, 6
	notetype $C, $00
	note A#, 6
	note G_, 4
	note D#, 8
	note D_, 8
	endchannel

Music_Kero1_Ch2:
	octave 3
	notetype $C, $00
	note E_, 2
	notetype $B, $00
	note C_, 1
	notetype $1, $00
	note __, 1
	note C_, 12
	notetype $C, $00
	note __, 2
	notetype $9, $00
	note C_, 2
	notetype $7, $00
	note __, 1
	notetype $A, $00
	note E_, 1
	notetype $E, $00
	note __, 1
	notetype $A, $00
	note C_, 1
	note __, 6
	notetype $1, $00
	note __, 1
	notetype $A, $00
	notetype $C, $00
	note G_, 1
	notetype $D, $00
	note __, 1
	notetype $A, $00
	note D_, 1
	note __, 3
	notetype $1, $00
	note __, 7
	notetype $A, $00
	notetype $9, $00
	note D_, 2
	notetype $7, $00
	note __, 1
	notetype $A, $00
	note G_, 1
	notetype $E, $00
	note __, 1
	notetype $A, $00
	note D_, 1
	note __, 6
	notetype $1, $00
	note __, 1
	notetype $A, $00
	notetype $9, $00
	note G_, 6
	note __, 2
	notetype $C, $00
	note E_, 1
	note __, 1
	notetype $9, $00
	note E_, 6
	note __, 2
	notetype $C, $00
	note E_, 1
	note __, 1
	notetype $9, $00
	note C_, 6
	note __, 2
	notetype $C, $00
	note C_, 1
	note __, 1
	octave 2
	notetype $9, $00
	note G_, 6
	note __, 4
	notetype $1, $00
	note __, 7
	notetype $9, $00
	octave 3
	notetype $A, $00
	note E_, 1
	notetype $1, $00
	note __, 1
	note E_, 11
	note __, 1
	note C_, 12
	note C_, 12
	notetype $C, $00
	note __, 2
	notetype $9, $00
	note C_, 2
	notetype $6, $00
	note __, 1
	notetype $B, $00
	note E_, 1
	notetype $D, $00
	note __, 1
	notetype $B, $00
	note C_, 1
	note __, 5
	notetype $1, $00
	note __, 6
	notetype $B, $00
	note G_, 1
	notetype $D, $00
	note __, 1
	notetype $B, $00
	note D_, 1
	note __, 3
	notetype $1, $00
	note __, 4
	notetype $B, $00
	notetype $9, $00
	note D_, 2
	notetype $6, $00
	note __, 1
	notetype $B, $00
	note G_, 1
	notetype $D, $00
	note __, 1
	notetype $B, $00
	note D_, 1
	note __, 5
	notetype $1, $00
	note __, 6
	notetype $B, $00
	notetype $9, $00
	note G_, 6
	note __, 2
	notetype $C, $00
	note G_, 1
	note __, 1
	notetype $9, $00
	note E_, 6
	note __, 2
	notetype $C, $00
	note E_, 1
	note __, 1
	notetype $9, $00
	note A_, 6
	note __, 2
	notetype $C, $00
	note A_, 1
	note __, 1
	note G_, 5
	note __, 3
	note C_, 1
	note __, 1
	note E_, 1
	note __, 1
	note G_, 1
	note __, 1
	note B_, 1
	note __, 1
	octave 4
	note C_, 1
	note __, 1
	octave 3
	note B_, 1
	note __, 1
	note G_, 1
	note __, 1
	note D_, 1
	note __, 1
	note C_, 1
	note __, 1
	note E_, 1
	note __, 1
	note G_, 1
	note __, 1
	note B_, 1
	note __, 1
	octave 4
	note C_, 1
	note __, 1
	octave 3
	note B_, 1
	note __, 1
	note G_, 1
	note __, 3
	octave 2
	note A_, 1
	note __, 1
	octave 3
	note C_, 1
	note __, 1
	note E_, 1
	note __, 1
	note F_, 1
	note __, 1
	note G_, 1
	note __, 1
	note F_, 1
	note __, 1
	note E_, 1
	note __, 1
	note C_, 1
	note __, 1
	octave 2
	note A_, 1
	note __, 1
	octave 3
	note C_, 1
	note __, 1
	note E_, 1
	note __, 1
	note F_, 1
	note __, 1
	note G_, 1
	note __, 1
	note F_, 1
	note __, 1
	note G_, 1
	note __, 1
	note B_, 1
	note __, 1
	note C_, 1
	note __, 1
	note E_, 1
	note __, 1
	note G_, 1
	note __, 1
	note B_, 1
	note __, 1
	octave 4
	note C_, 1
	note __, 1
	octave 3
	note B_, 1
	note __, 1
	note G_, 1
	note __, 1
	note D_, 1
	note __, 1
	note C_, 1
	note __, 1
	note E_, 1
	note __, 1
	note G_, 1
	note __, 1
	note B_, 1
	note __, 1
	octave 4
	note C_, 1
	note __, 1
	octave 3
	note B_, 1
	note __, 1
	note G_, 1
	note __, 3
	octave 2
	note A_, 1
	note __, 1
	octave 3
	note C_, 1
	note __, 1
	note E_, 1
	note __, 1
	note F_, 1
	note __, 1
	note G_, 1
	note __, 1
	note F_, 1
	note __, 1
	note E_, 1
	note __, 1
	note C_, 1
	note __, 1
	octave 2
	note A_, 1
	note __, 1
	octave 3
	note C_, 1
	note __, 1
	note E_, 1
	note __, 1
	note F_, 1
	note __, 1
	note G_, 1
	note __, 1
	note F_, 1
	note __, 1
	note E_, 1
	note __, 1
	note C_, 1
	note __, 1
	note E_, 1
	note E_, 1
	note C_, 1
	note C_, 1
	note __, 2
	notetype $9, $00
	note C_, 2
	notetype $6, $00
	note __, 1
	notetype $B, $00
	note E_, 1
	notetype $D, $00
	note __, 1
	notetype $B, $00
	note C_, 1
	note __, 5
	notetype $1, $00
	note __, 6
	notetype $B, $00
	note G_, 1
	notetype $D, $00
	note __, 1
	notetype $B, $00
	note D_, 1
	note __, 3
	notetype $1, $00
	note __, 4
	notetype $B, $00
	notetype $9, $00
	note D_, 2
	notetype $6, $00
	note __, 1
	notetype $B, $00
	note G_, 1
	notetype $D, $00
	note __, 1
	notetype $B, $00
	note D_, 1
	note __, 5
	notetype $1, $00
	note __, 6
	notetype $B, $00
	notetype $9, $00
	note G_, 6
	note __, 2
	notetype $C, $00
	note E_, 1
	note __, 1
	notetype $9, $00
	note E_, 6
	note __, 2
	notetype $C, $00
	note E_, 1
	note __, 1
	notetype $9, $00
	note C_, 6
	note __, 2
	notetype $C, $00
	note C_, 1
	note __, 1
	octave 2
	notetype $9, $00
	note G_, 6
	notetype $E, $00
	note __, 3
	octave 3
	notetype $C, $00
	note E_, 1
	note E_, 1
	note C_, 1
	note C_, 1
	note __, 2
	notetype $9, $00
	note C_, 2
	notetype $6, $00
	note __, 1
	notetype $B, $00
	note E_, 1
	notetype $D, $00
	note __, 1
	notetype $B, $00
	note C_, 1
	note __, 5
	notetype $1, $00
	note __, 6
	notetype $B, $00
	note G_, 1
	notetype $D, $00
	note __, 1
	notetype $B, $00
	note D_, 1
	note __, 3
	notetype $1, $00
	note __, 4
	notetype $B, $00
	notetype $9, $00
	note D_, 2
	notetype $6, $00
	note __, 1
	notetype $B, $00
	note G_, 1
	notetype $D, $00
	note __, 1
	notetype $B, $00
	note D_, 1
	note __, 5
	notetype $1, $00
	note __, 6
	notetype $B, $00
	notetype $9, $00
	note G_, 6
	note __, 2
	notetype $C, $00
	note G_, 1
	note __, 1
	notetype $9, $00
	note E_, 6
	note __, 2
	notetype $C, $00
	note E_, 1
	note __, 1
	notetype $9, $00
	note A_, 6
	note __, 2
	notetype $C, $00
	note A_, 1
	note __, 1
	note G_, 5
	note __, 3
	note C_, 1
	note __, 1
	note E_, 1
	note __, 1
	note G_, 1
	note __, 1
	note B_, 1
	note __, 1
	octave 4
	note C_, 1
	note __, 1
	octave 3
	note B_, 1
	note __, 1
	note G_, 1
	note __, 1
	note D_, 1
	note __, 1
	note C_, 1
	note __, 1
	note E_, 1
	note __, 1
	note G_, 1
	note __, 1
	note B_, 1
	note __, 1
	octave 4
	note C_, 1
	note __, 1
	octave 3
	note B_, 1
	note __, 1
	note G_, 1
	note __, 3
	octave 2
	note A_, 1
	note __, 1
	octave 3
	note C_, 1
	note __, 1
	note E_, 1
	note __, 1
	note F_, 1
	note __, 1
	note G_, 1
	note __, 1
	note F_, 1
	note __, 1
	note E_, 1
	note __, 1
	note C_, 1
	note __, 1
	octave 2
	note A_, 1
	note __, 1
	octave 3
	note C_, 1
	note __, 1
	note E_, 1
	note __, 1
	note F_, 1
	note __, 1
	note G_, 1
	note __, 1
	note F_, 1
	note __, 1
	note G_, 1
	note __, 1
	note B_, 1
	note __, 1
	note C_, 1
	note __, 1
	note E_, 1
	note __, 1
	note G_, 1
	note __, 1
	note B_, 1
	note __, 1
	octave 4
	note C_, 1
	note __, 1
	octave 3
	note B_, 1
	note __, 1
	note G_, 1
	note __, 1
	note D_, 1
	note __, 1
	note C_, 1
	note __, 1
	note E_, 1
	note __, 1
	note G_, 1
	note __, 1
	note B_, 1
	note __, 1
	octave 4
	note C_, 1
	note __, 1
	octave 3
	note B_, 1
	note __, 1
	note G_, 1
	note __, 3
	octave 2
	note A_, 1
	note __, 1
	octave 3
	note C_, 1
	note __, 1
	note E_, 1
	note __, 1
	note F_, 1
	note __, 1
	note G_, 1
	note __, 1
	note F_, 1
	note __, 1
	note E_, 1
	note __, 1
	note C_, 1
	note __, 1
	octave 2
	note A_, 1
	note __, 1
	octave 3
	note C_, 1
	note __, 1
	note E_, 1
	note __, 1
	note F_, 1
	note __, 1
	octave 4
	note C_, 1
	note __, 1
	octave 3
	note B_, 1
	note __, 1
	note A_, 1
	note __, 1
	note G_, 1
	note __, 1
	octave 2
	note G_, 4
	note __, 2
	notetype $D, $00
	note F#, 6
	notetype $E, $00
	note __, 3
	notetype $C, $00
	note F_, 4
	note __, 2
	notetype $D, $00
	note E_, 6
	notetype $E, $00
	note __, 3
	notetype $C, $00
	note G_, 4
	note __, 2
	notetype $D, $00
	note F#, 6
	notetype $E, $00
	note __, 3
	notetype $C, $00
	note F_, 4
	note __, 2
	notetype $D, $00
	note E_, 6
	notetype $E, $00
	note __, 3
	notetype $C, $00
	note G_, 4
	note __, 2
	notetype $D, $00
	note F#, 6
	notetype $E, $00
	note __, 3
	notetype $C, $00
	note F_, 4
	note __, 2
	notetype $D, $00
	note E_, 6
	notetype $E, $00
	note __, 3
	notetype $C, $00
	note G_, 4
	note __, 2
	notetype $D, $00
	note F#, 6
	notetype $E, $00
	note __, 3
	notetype $C, $00
	note F_, 4
	note __, 2
	notetype $D, $00
	note E_, 6
	note __, 16
	note __, 16
	note __, 16
	note __, 16
	note __, 2
	octave 3
	notetype $C, $00
	note A#, 2
	note __, 2
	note A#, 2
	note __, 6
	note A_, 6
	note G_, 6
	note A_, 4
	note __, 4
	note A#, 2
	note __, 2
	note A#, 2
	note __, 6
	note A_, 6
	note G_, 6
	note __, 16
	note __, 16
	note __, 16
	note __, 16
	note __, 8
	note A#, 2
	note __, 2
	note A#, 2
	note __, 6
	note A_, 6
	note G_, 6
	note A_, 4
	note __, 4
	note A#, 2
	note __, 2
	note A#, 2
	note __, 6
	note A_, 6
	note G_, 6
	note __, 4
	octave 1
	note B_, 8
	octave 2
	note C_, 8
	note D_, 8
	note D#, 8
	note A_, 8
	note G#, 8
	note D_, 8
	note D#, 8
	note C_, 1
	note __, 5
	octave 1
	note A#, 1
	note __, 1
	octave 2
	note C_, 1
	note __, 1
	note C_, 1
	note __, 3
	octave 1
	note A#, 1
	note __, 3
	octave 2
	note C_, 1
	note __, 3
	octave 1
	note A#, 1
	note __, 1
	octave 2
	note C_, 1
	note __, 1
	note C_, 1
	note __, 5
	octave 3
	notetype $B, $00
	note G_, 1
	notetype $D, $00
	note __, 1
	notetype $B, $00
	note D_, 1
	note __, 3
	notetype $1, $00
	note __, 4
	notetype $B, $00
	notetype $9, $00
	note D_, 2
	notetype $6, $00
	note __, 1
	notetype $B, $00
	note G_, 1
	notetype $D, $00
	note __, 1
	notetype $B, $00
	note D_, 1
	note __, 5
	notetype $1, $00
	note __, 6
	notetype $B, $00
	note D#, 1
	notetype $D, $00
	note __, 1
	notetype $B, $00
	note D_, 1
	note __, 3
	notetype $1, $00
	note __, 4
	notetype $B, $00
	notetype $9, $00
	note D_, 2
	notetype $6, $00
	note __, 1
	notetype $B, $00
	note F_, 1
	notetype $D, $00
	note __, 1
	notetype $B, $00
	note D_, 1
	endchannel

Music_Kero1_Ch3:
	octave 3
	notetype $C, $00
	note C_, 2
	octave 4
	note C_, 1
	note __, 3
	notetype $9, $00
	note C_, 2
	notetype $F, $00
	note __, 2
	notetype $C, $00
	note C_, 1
	note __, 3
	note C_, 2
	octave 3
	note E_, 2
	note B_, 1
	note __, 3
	notetype $9, $00
	note B_, 2
	notetype $F, $00
	note __, 2
	notetype $C, $00
	note B_, 2
	note __, 2
	notetype $9, $00
	note B_, 2
	notetype $6, $00
	note __, 1
	note F_, 4
	octave 4
	note C_, 2
	note __, 6
	note C_, 3
	note __, 5
	note C_, 3
	note __, 5
	note C_, 4
	note __, 4
	note C_, 4
	note __, 4
	note C_, 4
	octave 3
	note G_, 4
	octave 4
	note D_, 3
	note __, 1
	note D_, 8
	octave 3
	note C_, 4
	octave 4
	note C_, 2
	note __, 6
	note C_, 3
	note __, 5
	note C_, 2
	note __, 6
	note C_, 4
	octave 3
	note E_, 4
	note B_, 2
	note __, 6
	note B_, 3
	note __, 5
	note B_, 4
	note __, 4
	note B_, 3
	note __, 1
	note F_, 4
	octave 4
	note C_, 2
	note __, 6
	note C_, 3
	note __, 5
	note C_, 3
	note __, 5
	note C_, 4
	note __, 4
	note C_, 4
	note __, 4
	note C_, 4
	octave 3
	note G_, 4
	octave 4
	note D_, 3
	note __, 1
	note D_, 8
	note C_, 4
	note G_, 2
	note __, 6
	note F_, 2
	note __, 6
	note E_, 3
	note __, 5
	note F_, 4
	note __, 4
	note G_, 2
	note __, 6
	note F_, 3
	note __, 5
	note E_, 4
	note __, 4
	note F_, 4
	note C_, 4
	note G_, 3
	note __, 5
	note F_, 2
	note __, 6
	note E_, 2
	note __, 6
	note F_, 2
	note __, 6
	note G_, 2
	note __, 6
	note F_, 2
	note __, 6
	note E_, 4
	note F_, 3
	note __, 1
	note F_, 4
	note C_, 4
	note G_, 2
	note __, 6
	note F_, 2
	note __, 6
	note E_, 3
	note __, 5
	note F_, 4
	note __, 4
	note G_, 2
	note __, 6
	note F_, 3
	note __, 5
	note E_, 4
	note __, 4
	note F_, 4
	note C_, 4
	note G_, 3
	note __, 5
	note F_, 2
	note __, 6
	note E_, 2
	note __, 6
	note F_, 2
	note __, 6
	note G_, 2
	note __, 6
	note F_, 2
	note __, 6
	note E_, 4
	note F_, 3
	note __, 1
	note F_, 4
	octave 3
	note C_, 4
	octave 4
	note C_, 2
	note __, 6
	note C_, 3
	note __, 5
	note C_, 2
	note __, 6
	note C_, 4
	octave 3
	note E_, 4
	note B_, 2
	note __, 6
	note B_, 3
	note __, 5
	note B_, 4
	note __, 4
	note B_, 3
	note __, 1
	note F_, 4
	octave 4
	note C_, 2
	note __, 6
	note C_, 3
	note __, 5
	note C_, 3
	note __, 5
	note C_, 4
	note __, 4
	note C_, 4
	note __, 4
	note C_, 4
	octave 3
	note G_, 4
	octave 4
	note D_, 3
	note __, 1
	note D_, 8
	octave 3
	note C_, 4
	octave 4
	note C_, 2
	note __, 6
	note C_, 3
	note __, 5
	note C_, 2
	note __, 6
	note C_, 4
	octave 3
	note E_, 4
	note B_, 2
	note __, 6
	note B_, 3
	note __, 5
	note B_, 4
	note __, 4
	note B_, 3
	note __, 1
	note F_, 4
	octave 4
	note C_, 2
	note __, 6
	note C_, 3
	note __, 5
	note C_, 3
	note __, 5
	note C_, 4
	note __, 4
	note C_, 4
	note __, 4
	note C_, 4
	octave 3
	note G_, 4
	octave 4
	note D_, 3
	note __, 1
	note D_, 8
	note C_, 4
	note G_, 2
	note __, 6
	note F_, 2
	note __, 6
	note E_, 3
	note __, 5
	note F_, 4
	note __, 4
	note G_, 2
	note __, 6
	note F_, 3
	note __, 5
	note E_, 4
	note __, 4
	note F_, 4
	note C_, 4
	note G_, 3
	note __, 5
	note F_, 2
	note __, 6
	note E_, 2
	note __, 6
	note F_, 2
	note __, 6
	note G_, 2
	note __, 6
	note F_, 2
	note __, 6
	note E_, 4
	note F_, 3
	note __, 1
	note F_, 4
	note C_, 4
	note G_, 2
	note __, 6
	note F_, 2
	note __, 6
	note E_, 3
	note __, 5
	note F_, 4
	note __, 4
	note G_, 2
	note __, 6
	note F_, 3
	note __, 5
	note E_, 4
	note __, 4
	note F_, 4
	note C_, 4
	note G_, 3
	note __, 5
	note F_, 2
	note __, 6
	note E_, 2
	note __, 6
	note F_, 2
	note __, 6
	note G_, 2
	note __, 6
	note F_, 2
	note __, 6
	note E_, 4
	note F_, 3
	note __, 1
	note F_, 4
	note __, 16
	note __, 16
	note __, 16
	note __, 16
	note __, 16
	note __, 16
	note __, 16
	note __, 4
	octave 3
	note G_, 4
	note A_, 4
	note B_, 4
	octave 4
	note C_, 4
	note __, 4
	note G_, 2
	note __, 2
	note C_, 2
	note __, 6
	note C_, 2
	note __, 2
	note G_, 2
	note __, 2
	note C_, 2
	note __, 2
	note C_, 2
	note __, 6
	note G_, 2
	note __, 2
	note C_, 2
	note __, 6
	note C_, 2
	note __, 2
	note G_, 2
	note __, 2
	note C_, 2
	note __, 2
	note C_, 4
	note __, 4
	note G_, 2
	note __, 2
	note C_, 2
	note __, 6
	note C_, 2
	note __, 2
	note G_, 2
	note __, 2
	note C_, 2
	note __, 2
	note C_, 2
	note __, 6
	note G_, 2
	note __, 2
	note C_, 2
	note __, 6
	note C_, 2
	note __, 2
	note G_, 2
	note __, 2
	note C_, 2
	note __, 2
	octave 5
	note G_, 16
	note E_, 16
	note F_, 16
	note G_, 16
	note A#, 16
	note G_, 16
	note F_, 16
	note E_, 16
	octave 4
	note F_, 4
	notetype $3, $00
	note A#, 1
	note __, 3
	note A#, 1
	note __, 3
	note F_, 4
	note __, 4
	note A#, 4
	note __, 12
	note A#, 4
	note __, 4
	note F_, 8
	note A#, 4
	note __, 4
	note F_, 8
	note A#, 1
	note __, 3
	note A#, 1
	note __, 3
	note F_, 4
	note __, 4
	note A#, 4
	note __, 4
	note F_, 8
	note A#, 4
	note __, 4
	note F_, 8
	note A#, 4
	note __, 4
	note F_, 8
	note A#, 1
	note __, 3
	note A#, 1
	note __, 11
	note A#, 4
	note __, 4
	note F_, 8
	note A#, 4
	note __, 4
	note F_, 8
	note A#, 4
	note __, 12
	note A#, 1
	note __, 3
	note A#, 1
	note __, 11
	note A#, 1
	note __, 3
	note A#, 1
	note __, 3
	note F_, 8
	note A#, 4
	note __, 4
	note F_, 8
	note A#, 4
	note __, 4
	octave 5
	notetype $C, $00
	note G_, 8
	note E_, 8
	note F_, 8
	note G_, 8
	note A#, 8
	note G_, 8
	note F_, 8
	note E_, 8
	octave 4
	note F_, 2
	notetype $3, $00
	note A#, 1
	note __, 3
	note A#, 1
	note __, 3
	note F_, 4
	note __, 4
	note A#, 4
	note __, 12
	note A#, 4
	note __, 4
	note F_, 8
	note A#, 4
	note __, 4
	note F_, 8
	note A#, 1
	note __, 3
	note A#, 1
	note __, 3
	note F_, 4
	note __, 4
	note A#, 4
	note __, 4
	note F_, 8
	note A#, 4
	note __, 4
	note F_, 8
	note A#, 4
	note __, 4
	note F_, 8
	note A#, 1
	note __, 3
	note A#, 1
	note __, 11
	note A#, 4
	note __, 4
	note F_, 8
	note A#, 4
	note __, 4
	note F_, 8
	note A#, 4
	note __, 12
	note A#, 1
	note __, 3
	note A#, 1
	note __, 11
	note A#, 1
	note __, 3
	note A#, 1
	note __, 16
	note __, 3
	note G_, 16
	octave 5
	notetype $C, $00
	note G_, 6
	note D#, 6
	note C_, 4
	octave 4
	note G_, 4
	octave 5
	note C_, 4
	note G_, 4
	note F_, 4
	note D#, 6
	note D_, 6
	note C_, 4
	octave 4
	note A#, 14
	notetype $1, $00
	note A#, 6
	notetype $C, $00
	notetype $9, $00
	note __, 2
	notetype $C, $00
	note A#, 4
	octave 5
	note C_, 2
	note __, 2
	note C_, 2
	note __, 6
	note D#, 6
	note D_, 6
	note C_, 4
	octave 4
	note A#, 4
	octave 5
	note F_, 2
	note __, 2
	note F_, 2
	note __, 6
	note G#, 4
	octave 4
	notetype $6, $00
	note A#, 1
	note __, 1
	octave 5
	notetype $3, $00
	note C_, 1
	note F_, 1
	note __, 1
	note A_, 1
	notetype $F, $00
	note A#, 8
	endchannel

Music_Kero1_Ch4:
	togglenoise 0
	notetype $C
	note B_, 1
	note __, 1

	note F#, 1
	note __, 1
	note D_, 2
	note F#, 1
	note __, 1

	note B_, 1
	note __, 1
	note B_, 1
	note __, 1

	note D_, 2
	note F#, 1
	note __, 1

	note B_, 1
	note __, 1

	note F#, 1
	note __, 1
	note D_, 2

	note B_, 1
	note B_, 1
	note B_, 1
	note __, 1
	note B_, 1
	note __, 1

	note D_, 2
	note F#, 2

	note B_, 1
	note __, 1

	note F#, 1
	note __, 1
	note D_, 2
	note F#, 1
	note __, 1

	note B_, 1
	note __, 1
	note B_, 1
	note __, 1

	note D_, 2
	note F#, 1
	note __, 1

	note B_, 1
	note __, 1

	note F#, 1
	note __, 1
	note D_, 2
	note F#, 1
	note __, 1

	note B_, 1
	note __, 1

	note D_, 2
	note D_, 2
	note F#, 1
	note F#, 1

	note B_, 1
	note __, 1

	note F#, 1
	note __, 1
	note D_, 2
	note F#, 1
	note __, 1

	note B_, 1
	note __, 1
	note B_, 1
	note __, 1

	note D_, 2
	note F#, 1
	note __, 1

	note B_, 1
	note __, 1

	note F#, 1
	note __, 1
	note D_, 2
	note F#, 1
	note __, 1

	note B_, 1
	note __, 1
	note B_, 1
	note __, 1

	note D_, 2
	note F#, 1
	note __, 1

	note B_, 1
	note __, 1

	note F#, 1
	note __, 1
	note D_, 2
	note F#, 1
	note __, 1

	note B_, 1
	note __, 1
	note B_, 1
	note __, 1

	note D_, 2
	note F#, 1
	note __, 1

	note B_, 1
	note __, 1

	note F#, 1
	note __, 1
	note D_, 2

	note B_, 1
	note B_, 1

	note D_, 2

	note B_, 1
	note B_, 1

	note D_, 2
	note D_, 1
	note D_, 1

	note B_, 1
	note __, 3

	note D_, 2
	note __, 2

	note B_, 1
	note __, 1
	note B_, 1
	note __, 1

	note D_, 2
	note __, 2

	note B_, 1
	note __, 3

	note D_, 2
	note __, 2

	note B_, 1
	note __, 1
	note B_, 1
	note __, 1

	note D_, 2
	note __, 2

	note B_, 1
	note __, 3

	note D_, 2
	note __, 2

	note B_, 1
	note __, 1
	note B_, 1
	note __, 1

	note D_, 2
	note __, 2

	note B_, 1
	note __, 3

	note D_, 2
	note __, 2

	note B_, 1
	note __, 1
	note B_, 1

	note D_, 1
	note D_, 2
	note D_, 1
	note __, 1

	note B_, 1
	note __, 3

	note D_, 2
	note __, 2

	note B_, 1
	note __, 1
	note B_, 1
	note __, 1

	note D_, 2
	note __, 2

	note B_, 1
	note __, 1

	note F#, 1
	note __, 1
	note D_, 2
	note __, 2

	note B_, 1
	note __, 1
	note B_, 1
	note __, 1

	note D_, 2
	note __, 2

	note B_, 1
	note __, 3

	note D_, 2
	note __, 2

	note B_, 1
	note __, 1
	note B_, 1
	note __, 1

	note D_, 2
	note __, 2

	note B_, 1
	note __, 3

	note D_, 2
	note __, 2

	note B_, 1
	note __, 1

	note D_, 1
	note D_, 1

	note B_, 1
	note __, 1

	note D_, 1
	note D_, 1

	note B_, 1
	note __, 1

	note F#, 1
	note __, 1
	note D_, 2
	note F#, 1
	note __, 1

	note B_, 1
	note __, 1
	note B_, 1
	note __, 1

	note D_, 2
	note F#, 1
	note __, 1

	note B_, 1
	note __, 1

	note F#, 1
	note __, 1
	note D_, 2

	note B_, 1
	note B_, 1
	note B_, 1
	note __, 1
	note B_, 1
	note __, 1

	note D_, 2
	note F#, 2

	note B_, 1
	note __, 1

	note F#, 1
	note __, 1
	note D_, 2
	note F#, 1
	note __, 1

	note B_, 1
	note __, 1
	note B_, 1
	note __, 1

	note D_, 2
	note F#, 1
	note __, 1

	note B_, 1
	note __, 1

	note F#, 1
	note __, 1
	note D_, 2
	note F#, 1
	note __, 1

	note B_, 1
	note __, 1

	note D_, 2
	note D_, 2
	note F#, 1
	note F#, 1

	note B_, 1
	note __, 1

	note F#, 1
	note __, 1
	note D_, 2
	note F#, 1
	note __, 1

	note B_, 1
	note __, 1
	note B_, 1
	note __, 1

	note D_, 2
	note F#, 1
	note __, 1

	note B_, 1
	note __, 1

	note F#, 1
	note __, 1
	note D_, 2
	note F#, 1
	note __, 1

	note B_, 1
	note __, 1
	note B_, 1
	note __, 1

	note D_, 2
	note F#, 1
	note __, 1

	note B_, 1
	note __, 1

	note F#, 1
	note __, 1
	note D_, 2
	note F#, 1
	note __, 1

	note B_, 1
	note __, 1
	note B_, 1
	note __, 1

	note D_, 2
	note F#, 1
	note __, 1

	note B_, 1
	note __, 1

	note F#, 1
	note __, 1
	note D_, 2

	note B_, 1
	note B_, 1

	note D_, 2

	note B_, 1
	note B_, 1

	note D_, 2
	note D_, 1
	note D_, 1

	note B_, 1
	note __, 3

	note D_, 2
	note __, 2

	note B_, 1
	note __, 1
	note B_, 1
	note __, 1

	note D_, 2
	note __, 2

	note B_, 1
	note __, 3

	note D_, 2
	note __, 2

	note B_, 1
	note __, 1
	note B_, 1
	note __, 1

	note D_, 2
	note __, 2

	note B_, 1
	note __, 3

	note D_, 2
	note __, 2

	note B_, 1
	note __, 1
	note B_, 1
	note __, 1

	note D_, 2
	note __, 2

	note B_, 1
	note __, 3

	note D_, 2
	note __, 2

	note B_, 1
	note __, 1
	note B_, 1

	note D_, 1
	note D_, 2
	note D_, 1
	note __, 1

	note B_, 1
	note __, 3

	note D_, 2
	note __, 2

	note B_, 1
	note __, 1
	note B_, 1
	note __, 1

	note D_, 2
	note __, 2

	note B_, 1
	note __, 1

	note F#, 1
	note __, 1
	note D_, 2
	note __, 2

	note B_, 1
	note __, 1
	note B_, 1
	note __, 1

	note D_, 2
	note __, 2

	note B_, 1
	note __, 3

	note D_, 2
	note __, 2

	note B_, 1
	note __, 1
	note B_, 1
	note __, 1

	note D_, 2
	note __, 2

	note B_, 1
	note __, 3

	note D_, 2
	note __, 2

	note B_, 1
	note __, 1

	note D_, 1
	note D_, 1

	note B_, 1
	note __, 1

	note D_, 1
	note D_, 1

	note B_, 1
	note __, 1

	note F#, 1
	note __, 1
	note F#, 1
	note __, 1

	notetype $9
	note B_, 2
	notetype $6
	note __, 1

	note F#, 2
	note __, 2
	note F#, 2
	note __, 2
	note D_, 4
	note F#, 4

	note B_, 2
	note __, 2

	note F#, 2
	note __, 2
	note F#, 2
	note __, 2

	note B_, 3
	note __, 1

	note F#, 2
	note __, 2
	note F#, 2
	note __, 2
	note D_, 4
	note F#, 4

	note B_, 2
	note __, 2

	note F#, 2
	note __, 2
	note F#, 2
	note __, 2

	note B_, 3
	note __, 1

	note F#, 2
	note __, 2
	note F#, 2
	note __, 2
	note D_, 4
	note F#, 4

	note B_, 2
	note __, 2

	note F#, 2
	note __, 1
	note D_, 1
	note D_, 4

	note B_, 3
	note __, 1

	note D_, 4

	note B_, 2
	note B_, 2

	note D_, 4
	note F#, 4

	note B_, 2
	note __, 2

	note F#, 2
	note __, 2
	note F#, 2
	note __, 2

	note B_, 3
	note __, 1

	note F#, 2
	note __, 2
	note F#, 2
	note __, 2
	note D_, 4
	note F#, 4

	note B_, 2
	note __, 2

	note F#, 2
	note __, 2
	note F#, 2
	note __, 2

	note B_, 3
	note __, 1

	note F#, 2
	note __, 2
	note F#, 2
	note __, 2
	note D_, 4
	note F#, 4

	note B_, 2
	note __, 2

	note F#, 2
	note __, 2
	note F#, 2
	note __, 2

	note B_, 3
	note __, 1

	note F#, 2
	note __, 2
	note F#, 2
	note __, 2
	note D_, 4
	note __, 2
	note D_, 1
	note D_, 1

	note B_, 2
	note __, 2

	note F#, 2
	note D_, 1
	note __, 1
	note D_, 4

	note B_, 3
	note __, 1

	note D_, 4
	note D_, 4
	note D_, 4
	note D_, 4

	note B_, 2
	note __, 2

	note F#, 2
	note __, 2
	note D_, 4
	note F#, 2
	note __, 2

	note B_, 2
	note __, 2
	note B_, 2
	note __, 2

	note D_, 4
	note F#, 2
	note __, 2

	note B_, 2
	note __, 2

	note F#, 2
	note __, 2
	note D_, 4
	note F#, 2
	note __, 2

	note B_, 2
	note __, 2
	note B_, 2
	note __, 2

	note D_, 4
	note F#, 2
	note __, 2

	note B_, 2
	note __, 2

	note F#, 2
	note __, 2
	note D_, 4
	note F#, 2
	note __, 2

	note B_, 2
	note __, 2
	note B_, 2
	note __, 2

	note D_, 4
	note F#, 2
	note __, 2

	note B_, 2
	note __, 2

	note F#, 2
	note __, 2
	note D_, 4
	note F#, 2
	note __, 2

	note B_, 2
	note __, 2

	note D_, 2
	note __, 2

	note B_, 2
	note __, 2

	note D_, 2
	note D_, 2

	note B_, 2
	note __, 2

	note F#, 2
	note __, 2
	note D_, 4
	note F#, 2
	note __, 2

	note B_, 2
	note __, 2
	note B_, 2
	note __, 2

	note D_, 4
	note F#, 2
	note __, 2

	note B_, 2
	note __, 2

	note F#, 2
	note __, 2
	note D_, 4
	note F#, 2
	note __, 2

	note B_, 2
	note __, 2
	note B_, 2
	note __, 2

	note D_, 4
	note F#, 2
	note __, 2

	note B_, 2
	note __, 2

	note F#, 2
	note __, 2
	note D_, 4
	note F#, 2
	note __, 2

	note B_, 2
	note __, 2
	note B_, 2
	note __, 2

	note D_, 4
	note F#, 2
	note __, 2

	note B_, 2
	note __, 2

	note F#, 2
	note __, 2
	note D_, 4
	note F#, 2
	note __, 2

	note B_, 2
	note __, 2
	note B_, 2
	note __, 2

	note D_, 4
	note F#, 2
	note __, 2

	note B_, 2
	note __, 2

	note F#, 2
	note __, 2
	note D_, 4
	note F#, 2
	note __, 2

	note B_, 2
	note __, 2
	note B_, 2
	note __, 2

	note D_, 4
	note F#, 2
	note __, 2

	note B_, 2
	note __, 2

	note F#, 2
	note __, 2
	note D_, 4
	note F#, 2
	note __, 2

	note B_, 2
	note __, 2
	note B_, 2
	note __, 2

	note D_, 4
	note F#, 2
	note __, 2

	note B_, 2
	note __, 2

	note F#, 2
	note __, 2
	note D_, 4
	note F#, 2
	note __, 2

	note B_, 2
	note __, 2
	note B_, 2
	note __, 2

	note D_, 4
	note F#, 2
	note __, 2

	note B_, 2
	note __, 2

	note F#, 2
	note __, 2
	note D_, 4
	note F#, 2
	note __, 2

	note B_, 2
	note __, 2

	note D_, 2
	note __, 2

	note B_, 2
	note __, 2

	note D_, 4

	note B_, 2
	note __, 2

	note F#, 2
	note __, 2
	note D_, 4
	note F#, 2
	note __, 2

	note B_, 2
	note __, 2
	note B_, 2
	note __, 2

	note D_, 4
	note F#, 2
	note __, 2

	note B_, 2
	note __, 2

	note F#, 2
	note __, 2
	note D_, 4
	note F#, 2
	note __, 2

	note B_, 2
	note __, 2
	note B_, 2
	note __, 2

	note D_, 4
	note F#, 2
	note __, 2

	note B_, 2
	note __, 2

	note F#, 2
	note __, 2
	note D_, 4
	note F#, 2
	note __, 2

	note B_, 2
	note __, 2
	note B_, 2
	note __, 2

	note D_, 4
	note F#, 2
	note __, 2

	note B_, 2
	note __, 2

	note F#, 2
	note __, 2

	note B_, 2
	note __, 2

	note F#, 2
	note __, 2

	note B_, 2
	note __, 2
	note B_, 2
	note __, 2

	note D_, 2
	note D_, 2
	note __, 4

	note B_, 2
	note __, 6

	note D_, 4
	note F#, 2
	note __, 2

	note B_, 2
	note __, 2
	note B_, 2
	note __, 2

	note D_, 4
	note F#, 2
	note __, 2

	note B_, 2
	note __, 2

	note F#, 2
	note __, 2
	note D_, 4
	note F#, 2
	note __, 2

	note B_, 2
	note __, 2
	note B_, 2
	note __, 2

	note D_, 4
	note F#, 2
	note __, 2

	note B_, 2
	note __, 2

	note F#, 2
	note __, 2
	note D_, 4
	note F#, 2
	note __, 2

	note B_, 2
	note __, 2
	note B_, 2
	note __, 2

	note D_, 4
	note F#, 2
	note __, 2

	note B_, 2
	note __, 2

	note F#, 2
	note __, 2
	note D_, 4
	note F#, 2
	note __, 2

	note B_, 2
	note __, 2
	note B_, 2

	note D_, 2
	note D_, 4

	note B_, 2
	note __, 2
	note B_, 2
	note __, 2

	note F#, 2
	note __, 2
	note D_, 4
	note F#, 2
	note __, 2

	note B_, 2
	note __, 2
	note B_, 2
	note __, 2

	note D_, 4
	note F#, 2
	note __, 2

	note B_, 2
	note __, 2

	note F#, 2
	note __, 2
	note D_, 4
	note F#, 2
	note __, 2

	note B_, 2
	note __, 2
	note B_, 2
	note __, 2

	note D_, 4
	note F#, 2
	note __, 2

	note B_, 2
	note __, 2

	note F#, 2
	note __, 2
	note D_, 4
	note F#, 2
	note __, 2

	note B_, 2
	note __, 2
	note B_, 2
	note __, 2

	note D_, 4
	note F#, 2
	note __, 2

	note B_, 2
	note __, 2

	note D_, 2
	note D_, 2
	note D_, 4

	note B_, 2
	note B_, 2

	note D_, 4

	note B_, 2
	note B_, 2

	note D_, 4
	note F#, 4
	endchannel

